<mxfile host="app.diagrams.net" modified="2024-06-14T09:10:40.941Z" agent="Mozilla/5.0 (Windows NT 10.0; Win64; x64) AppleWebKit/537.36 (KHTML, like Gecko) Chrome/123.0.0.0 Safari/537.36 OPR/109.0.0.0" etag="jJx0mIp5anSjz8ECSFe_" version="24.5.4" type="github">
  <diagram name="Page-1" id="YmrUn44BQGobKNTQXGlI">
    <mxGraphModel dx="2335" dy="776" grid="1" gridSize="10" guides="1" tooltips="1" connect="1" arrows="1" fold="1" page="1" pageScale="1" pageWidth="850" pageHeight="1100" math="0" shadow="0">
      <root>
        <mxCell id="0" />
        <mxCell id="1" parent="0" />
        <mxCell id="ZCE2MnAYj7O31BiBRxeJ-8" style="edgeStyle=orthogonalEdgeStyle;rounded=0;orthogonalLoop=1;jettySize=auto;html=1;entryX=0.5;entryY=0;entryDx=0;entryDy=0;" edge="1" parent="1" source="ZCE2MnAYj7O31BiBRxeJ-1" target="ZCE2MnAYj7O31BiBRxeJ-3">
          <mxGeometry relative="1" as="geometry" />
        </mxCell>
        <mxCell id="ZCE2MnAYj7O31BiBRxeJ-9" style="edgeStyle=orthogonalEdgeStyle;rounded=0;orthogonalLoop=1;jettySize=auto;html=1;entryX=0.5;entryY=0;entryDx=0;entryDy=0;" edge="1" parent="1" source="ZCE2MnAYj7O31BiBRxeJ-1">
          <mxGeometry relative="1" as="geometry">
            <mxPoint x="875" y="138" as="targetPoint" />
          </mxGeometry>
        </mxCell>
        <mxCell id="ZCE2MnAYj7O31BiBRxeJ-1" value="Internet" style="shape=ellipse;html=1;dashed=0;whiteSpace=wrap;aspect=fixed;perimeter=ellipsePerimeter;fontStyle=1" vertex="1" parent="1">
          <mxGeometry x="385" y="20" width="80" height="80" as="geometry" />
        </mxCell>
        <mxCell id="ZCE2MnAYj7O31BiBRxeJ-16" style="edgeStyle=orthogonalEdgeStyle;rounded=0;orthogonalLoop=1;jettySize=auto;html=1;entryX=0.5;entryY=0;entryDx=0;entryDy=0;" edge="1" parent="1" target="ZCE2MnAYj7O31BiBRxeJ-13">
          <mxGeometry relative="1" as="geometry">
            <mxPoint x="875" y="198" as="sourcePoint" />
          </mxGeometry>
        </mxCell>
        <mxCell id="ZCE2MnAYj7O31BiBRxeJ-15" style="edgeStyle=orthogonalEdgeStyle;rounded=0;orthogonalLoop=1;jettySize=auto;html=1;entryX=0.5;entryY=0;entryDx=0;entryDy=0;" edge="1" parent="1" source="ZCE2MnAYj7O31BiBRxeJ-3" target="ZCE2MnAYj7O31BiBRxeJ-14">
          <mxGeometry relative="1" as="geometry" />
        </mxCell>
        <mxCell id="ZCE2MnAYj7O31BiBRxeJ-3" value="&lt;b&gt;Layer - 3 Switches&amp;nbsp;&lt;/b&gt;&lt;div&gt;&lt;b&gt;with&lt;/b&gt;&lt;/div&gt;&lt;div&gt;&lt;b&gt;&amp;nbsp;Firewall Modules&lt;/b&gt;&lt;/div&gt;" style="html=1;dashed=0;whiteSpace=wrap;" vertex="1" parent="1">
          <mxGeometry x="-41" y="141" width="122" height="59" as="geometry" />
        </mxCell>
        <mxCell id="ZCE2MnAYj7O31BiBRxeJ-27" style="edgeStyle=orthogonalEdgeStyle;rounded=0;orthogonalLoop=1;jettySize=auto;html=1;entryX=0.5;entryY=0;entryDx=0;entryDy=0;" edge="1" parent="1" source="ZCE2MnAYj7O31BiBRxeJ-13" target="ZCE2MnAYj7O31BiBRxeJ-19">
          <mxGeometry relative="1" as="geometry" />
        </mxCell>
        <mxCell id="ZCE2MnAYj7O31BiBRxeJ-13" value="Load Balancers" style="html=1;dashed=0;whiteSpace=wrap;fontStyle=1" vertex="1" parent="1">
          <mxGeometry x="825" y="250" width="100" height="50" as="geometry" />
        </mxCell>
        <mxCell id="ZCE2MnAYj7O31BiBRxeJ-24" value="" style="edgeStyle=orthogonalEdgeStyle;rounded=0;orthogonalLoop=1;jettySize=auto;html=1;" edge="1" parent="1" source="ZCE2MnAYj7O31BiBRxeJ-14" target="ZCE2MnAYj7O31BiBRxeJ-20">
          <mxGeometry relative="1" as="geometry" />
        </mxCell>
        <mxCell id="ZCE2MnAYj7O31BiBRxeJ-25" style="edgeStyle=orthogonalEdgeStyle;rounded=0;orthogonalLoop=1;jettySize=auto;html=1;entryX=0.5;entryY=0;entryDx=0;entryDy=0;" edge="1" parent="1" source="ZCE2MnAYj7O31BiBRxeJ-14" target="ZCE2MnAYj7O31BiBRxeJ-18">
          <mxGeometry relative="1" as="geometry" />
        </mxCell>
        <mxCell id="ZCE2MnAYj7O31BiBRxeJ-14" value="Load Balancers" style="html=1;dashed=0;whiteSpace=wrap;fontStyle=1" vertex="1" parent="1">
          <mxGeometry x="-30" y="250" width="100" height="50" as="geometry" />
        </mxCell>
        <mxCell id="ZCE2MnAYj7O31BiBRxeJ-42" style="edgeStyle=orthogonalEdgeStyle;rounded=0;orthogonalLoop=1;jettySize=auto;html=1;entryX=0.5;entryY=0;entryDx=0;entryDy=0;" edge="1" parent="1" source="ZCE2MnAYj7O31BiBRxeJ-18" target="ZCE2MnAYj7O31BiBRxeJ-33">
          <mxGeometry relative="1" as="geometry">
            <Array as="points">
              <mxPoint x="-225" y="450" />
              <mxPoint x="-370" y="450" />
            </Array>
          </mxGeometry>
        </mxCell>
        <mxCell id="ZCE2MnAYj7O31BiBRxeJ-43" style="edgeStyle=orthogonalEdgeStyle;rounded=0;orthogonalLoop=1;jettySize=auto;html=1;entryX=0.5;entryY=0;entryDx=0;entryDy=0;" edge="1" parent="1" source="ZCE2MnAYj7O31BiBRxeJ-18" target="ZCE2MnAYj7O31BiBRxeJ-32">
          <mxGeometry relative="1" as="geometry">
            <Array as="points">
              <mxPoint x="-225" y="450" />
              <mxPoint x="-100" y="450" />
            </Array>
          </mxGeometry>
        </mxCell>
        <mxCell id="ZCE2MnAYj7O31BiBRxeJ-18" value="Edge Computing&amp;nbsp;&lt;div&gt;Nodes&lt;/div&gt;" style="html=1;dashed=0;whiteSpace=wrap;fontStyle=1" vertex="1" parent="1">
          <mxGeometry x="-290" y="340" width="130" height="80" as="geometry" />
        </mxCell>
        <mxCell id="ZCE2MnAYj7O31BiBRxeJ-46" style="edgeStyle=orthogonalEdgeStyle;rounded=0;orthogonalLoop=1;jettySize=auto;html=1;exitX=0.5;exitY=1;exitDx=0;exitDy=0;entryX=0.5;entryY=0;entryDx=0;entryDy=0;" edge="1" parent="1" source="ZCE2MnAYj7O31BiBRxeJ-19" target="ZCE2MnAYj7O31BiBRxeJ-30">
          <mxGeometry relative="1" as="geometry" />
        </mxCell>
        <mxCell id="ZCE2MnAYj7O31BiBRxeJ-47" style="edgeStyle=orthogonalEdgeStyle;rounded=0;orthogonalLoop=1;jettySize=auto;html=1;entryX=0.5;entryY=0;entryDx=0;entryDy=0;" edge="1" parent="1" source="ZCE2MnAYj7O31BiBRxeJ-19" target="ZCE2MnAYj7O31BiBRxeJ-29">
          <mxGeometry relative="1" as="geometry" />
        </mxCell>
        <mxCell id="ZCE2MnAYj7O31BiBRxeJ-19" value="&lt;div&gt;&lt;br&gt;&lt;/div&gt;&lt;span style=&quot;color: rgb(0, 0, 0); font-family: Helvetica; font-size: 12px; font-style: normal; font-variant-ligatures: normal; font-variant-caps: normal; letter-spacing: normal; orphans: 2; text-align: center; text-indent: 0px; text-transform: none; widows: 2; word-spacing: 0px; -webkit-text-stroke-width: 0px; white-space: normal; background-color: rgb(251, 251, 251); text-decoration-thickness: initial; text-decoration-style: initial; text-decoration-color: initial; float: none; display: inline !important;&quot;&gt;Edge Computing&amp;nbsp;&lt;/span&gt;&lt;div style=&quot;forced-color-adjust: none; color: rgb(0, 0, 0); font-family: Helvetica; font-size: 12px; font-style: normal; font-variant-ligatures: normal; font-variant-caps: normal; letter-spacing: normal; orphans: 2; text-align: center; text-indent: 0px; text-transform: none; widows: 2; word-spacing: 0px; -webkit-text-stroke-width: 0px; white-space: normal; background-color: rgb(251, 251, 251); text-decoration-thickness: initial; text-decoration-style: initial; text-decoration-color: initial;&quot;&gt;Nodes&lt;/div&gt;&lt;div&gt;&lt;br&gt;&lt;/div&gt;" style="html=1;dashed=0;whiteSpace=wrap;fontStyle=1" vertex="1" parent="1">
          <mxGeometry x="580" y="330" width="130" height="80" as="geometry" />
        </mxCell>
        <mxCell id="ZCE2MnAYj7O31BiBRxeJ-48" style="edgeStyle=orthogonalEdgeStyle;rounded=0;orthogonalLoop=1;jettySize=auto;html=1;entryX=0.5;entryY=0;entryDx=0;entryDy=0;" edge="1" parent="1" source="ZCE2MnAYj7O31BiBRxeJ-21" target="ZCE2MnAYj7O31BiBRxeJ-38">
          <mxGeometry relative="1" as="geometry">
            <Array as="points">
              <mxPoint x="1115" y="440" />
              <mxPoint x="990" y="440" />
            </Array>
          </mxGeometry>
        </mxCell>
        <mxCell id="ZCE2MnAYj7O31BiBRxeJ-49" style="edgeStyle=orthogonalEdgeStyle;rounded=0;orthogonalLoop=1;jettySize=auto;html=1;entryX=0.5;entryY=0;entryDx=0;entryDy=0;" edge="1" parent="1" source="ZCE2MnAYj7O31BiBRxeJ-21" target="ZCE2MnAYj7O31BiBRxeJ-37">
          <mxGeometry relative="1" as="geometry" />
        </mxCell>
        <mxCell id="ZCE2MnAYj7O31BiBRxeJ-21" value="&lt;div&gt;&lt;br&gt;&lt;/div&gt;&lt;span style=&quot;color: rgb(0, 0, 0); font-family: Helvetica; font-size: 12px; font-style: normal; font-variant-ligatures: normal; font-variant-caps: normal; letter-spacing: normal; orphans: 2; text-align: center; text-indent: 0px; text-transform: none; widows: 2; word-spacing: 0px; -webkit-text-stroke-width: 0px; white-space: normal; background-color: rgb(251, 251, 251); text-decoration-thickness: initial; text-decoration-style: initial; text-decoration-color: initial; float: none; display: inline !important;&quot;&gt;Edge Computing&amp;nbsp;&lt;/span&gt;&lt;div style=&quot;forced-color-adjust: none; color: rgb(0, 0, 0); font-family: Helvetica; font-size: 12px; font-style: normal; font-variant-ligatures: normal; font-variant-caps: normal; letter-spacing: normal; orphans: 2; text-align: center; text-indent: 0px; text-transform: none; widows: 2; word-spacing: 0px; -webkit-text-stroke-width: 0px; white-space: normal; background-color: rgb(251, 251, 251); text-decoration-thickness: initial; text-decoration-style: initial; text-decoration-color: initial;&quot;&gt;Nodes&lt;/div&gt;&lt;div&gt;&lt;br&gt;&lt;/div&gt;" style="html=1;dashed=0;whiteSpace=wrap;fontStyle=1" vertex="1" parent="1">
          <mxGeometry x="1050" y="330" width="130" height="80" as="geometry" />
        </mxCell>
        <mxCell id="ZCE2MnAYj7O31BiBRxeJ-44" style="edgeStyle=orthogonalEdgeStyle;rounded=0;orthogonalLoop=1;jettySize=auto;html=1;entryX=0.5;entryY=0;entryDx=0;entryDy=0;" edge="1" parent="1" source="ZCE2MnAYj7O31BiBRxeJ-20" target="ZCE2MnAYj7O31BiBRxeJ-31">
          <mxGeometry relative="1" as="geometry" />
        </mxCell>
        <mxCell id="ZCE2MnAYj7O31BiBRxeJ-45" style="edgeStyle=orthogonalEdgeStyle;rounded=0;orthogonalLoop=1;jettySize=auto;html=1;exitX=0.5;exitY=1;exitDx=0;exitDy=0;entryX=0.5;entryY=0;entryDx=0;entryDy=0;" edge="1" parent="1" source="ZCE2MnAYj7O31BiBRxeJ-20" target="ZCE2MnAYj7O31BiBRxeJ-28">
          <mxGeometry relative="1" as="geometry" />
        </mxCell>
        <mxCell id="ZCE2MnAYj7O31BiBRxeJ-20" value="&lt;div&gt;&lt;br&gt;&lt;/div&gt;&lt;span style=&quot;color: rgb(0, 0, 0); font-family: Helvetica; font-size: 12px; font-style: normal; font-variant-ligatures: normal; font-variant-caps: normal; letter-spacing: normal; orphans: 2; text-align: center; text-indent: 0px; text-transform: none; widows: 2; word-spacing: 0px; -webkit-text-stroke-width: 0px; white-space: normal; background-color: rgb(251, 251, 251); text-decoration-thickness: initial; text-decoration-style: initial; text-decoration-color: initial; float: none; display: inline !important;&quot;&gt;Edge Computing&amp;nbsp;&lt;/span&gt;&lt;div style=&quot;forced-color-adjust: none; color: rgb(0, 0, 0); font-family: Helvetica; font-size: 12px; font-style: normal; font-variant-ligatures: normal; font-variant-caps: normal; letter-spacing: normal; orphans: 2; text-align: center; text-indent: 0px; text-transform: none; widows: 2; word-spacing: 0px; -webkit-text-stroke-width: 0px; white-space: normal; background-color: rgb(251, 251, 251); text-decoration-thickness: initial; text-decoration-style: initial; text-decoration-color: initial;&quot;&gt;Nodes&lt;/div&gt;&lt;div&gt;&lt;br&gt;&lt;/div&gt;" style="html=1;dashed=0;whiteSpace=wrap;fontStyle=1;textShadow=0;" vertex="1" parent="1">
          <mxGeometry x="170" y="340" width="130" height="80" as="geometry" />
        </mxCell>
        <mxCell id="ZCE2MnAYj7O31BiBRxeJ-26" style="edgeStyle=orthogonalEdgeStyle;rounded=0;orthogonalLoop=1;jettySize=auto;html=1;entryX=0.589;entryY=-0.015;entryDx=0;entryDy=0;entryPerimeter=0;" edge="1" parent="1" source="ZCE2MnAYj7O31BiBRxeJ-13" target="ZCE2MnAYj7O31BiBRxeJ-21">
          <mxGeometry relative="1" as="geometry" />
        </mxCell>
        <mxCell id="ZCE2MnAYj7O31BiBRxeJ-66" style="edgeStyle=orthogonalEdgeStyle;rounded=0;orthogonalLoop=1;jettySize=auto;html=1;" edge="1" parent="1" source="ZCE2MnAYj7O31BiBRxeJ-28" target="ZCE2MnAYj7O31BiBRxeJ-54">
          <mxGeometry relative="1" as="geometry" />
        </mxCell>
        <mxCell id="ZCE2MnAYj7O31BiBRxeJ-28" value="&#xa;&lt;span style=&quot;color: rgb(0, 0, 0); font-family: Helvetica; font-size: 12px; font-style: normal; font-variant-ligatures: normal; font-variant-caps: normal; font-weight: 400; letter-spacing: normal; orphans: 2; text-align: center; text-indent: 0px; text-transform: none; widows: 2; word-spacing: 0px; -webkit-text-stroke-width: 0px; white-space: normal; background-color: rgb(251, 251, 251); text-decoration-thickness: initial; text-decoration-style: initial; text-decoration-color: initial; display: inline !important; float: none;&quot;&gt;Layer - 2 Switch&lt;/span&gt;&#xa;&#xa;" style="html=1;dashed=0;whiteSpace=wrap;" vertex="1" parent="1">
          <mxGeometry x="290" y="470" width="100" height="50" as="geometry" />
        </mxCell>
        <mxCell id="ZCE2MnAYj7O31BiBRxeJ-63" style="edgeStyle=orthogonalEdgeStyle;rounded=0;orthogonalLoop=1;jettySize=auto;html=1;" edge="1" parent="1" source="ZCE2MnAYj7O31BiBRxeJ-29" target="ZCE2MnAYj7O31BiBRxeJ-53">
          <mxGeometry relative="1" as="geometry" />
        </mxCell>
        <mxCell id="ZCE2MnAYj7O31BiBRxeJ-29" value="&#xa;&lt;span style=&quot;forced-color-adjust: none; color: rgb(0, 0, 0); font-family: Helvetica; font-size: 12px; font-style: normal; font-variant-ligatures: normal; font-variant-caps: normal; font-weight: 400; letter-spacing: normal; orphans: 2; text-align: center; text-indent: 0px; text-transform: none; widows: 2; word-spacing: 0px; -webkit-text-stroke-width: 0px; white-space: normal; text-decoration-thickness: initial; text-decoration-style: initial; text-decoration-color: initial; background-color: rgb(251, 251, 251); float: none; display: inline !important;&quot;&gt;Layer - 2 Switch&lt;/span&gt;&lt;br style=&quot;forced-color-adjust: none; color: rgb(0, 0, 0); font-family: Helvetica; font-size: 12px; font-style: normal; font-variant-ligatures: normal; font-variant-caps: normal; font-weight: 400; letter-spacing: normal; orphans: 2; text-align: center; text-indent: 0px; text-transform: none; widows: 2; word-spacing: 0px; -webkit-text-stroke-width: 0px; white-space: normal; background-color: rgb(251, 251, 251); text-decoration-thickness: initial; text-decoration-style: initial; text-decoration-color: initial;&quot;&gt;&#xa;&#xa;" style="html=1;dashed=0;whiteSpace=wrap;" vertex="1" parent="1">
          <mxGeometry x="700" y="470" width="100" height="50" as="geometry" />
        </mxCell>
        <mxCell id="ZCE2MnAYj7O31BiBRxeJ-62" style="edgeStyle=orthogonalEdgeStyle;rounded=0;orthogonalLoop=1;jettySize=auto;html=1;entryX=0.5;entryY=0;entryDx=0;entryDy=0;" edge="1" parent="1" source="ZCE2MnAYj7O31BiBRxeJ-30" target="ZCE2MnAYj7O31BiBRxeJ-53">
          <mxGeometry relative="1" as="geometry" />
        </mxCell>
        <mxCell id="ZCE2MnAYj7O31BiBRxeJ-30" value="&#xa;&lt;span style=&quot;forced-color-adjust: none; color: rgb(0, 0, 0); font-family: Helvetica; font-size: 12px; font-style: normal; font-variant-ligatures: normal; font-variant-caps: normal; font-weight: 400; letter-spacing: normal; orphans: 2; text-align: center; text-indent: 0px; text-transform: none; widows: 2; word-spacing: 0px; -webkit-text-stroke-width: 0px; white-space: normal; text-decoration-thickness: initial; text-decoration-style: initial; text-decoration-color: initial; background-color: rgb(251, 251, 251); float: none; display: inline !important;&quot;&gt;Layer - 2 Switch&lt;/span&gt;&lt;br style=&quot;forced-color-adjust: none; color: rgb(0, 0, 0); font-family: Helvetica; font-size: 12px; font-style: normal; font-variant-ligatures: normal; font-variant-caps: normal; font-weight: 400; letter-spacing: normal; orphans: 2; text-align: center; text-indent: 0px; text-transform: none; widows: 2; word-spacing: 0px; -webkit-text-stroke-width: 0px; white-space: normal; background-color: rgb(251, 251, 251); text-decoration-thickness: initial; text-decoration-style: initial; text-decoration-color: initial;&quot;&gt;&#xa;&#xa;" style="html=1;dashed=0;whiteSpace=wrap;" vertex="1" parent="1">
          <mxGeometry x="490" y="470" width="100" height="50" as="geometry" />
        </mxCell>
        <mxCell id="ZCE2MnAYj7O31BiBRxeJ-59" style="edgeStyle=orthogonalEdgeStyle;rounded=0;orthogonalLoop=1;jettySize=auto;html=1;" edge="1" parent="1" source="ZCE2MnAYj7O31BiBRxeJ-31" target="ZCE2MnAYj7O31BiBRxeJ-54">
          <mxGeometry relative="1" as="geometry" />
        </mxCell>
        <mxCell id="ZCE2MnAYj7O31BiBRxeJ-31" value="&#xa;&lt;span style=&quot;color: rgb(0, 0, 0); font-family: Helvetica; font-size: 12px; font-style: normal; font-variant-ligatures: normal; font-variant-caps: normal; font-weight: 400; letter-spacing: normal; orphans: 2; text-align: center; text-indent: 0px; text-transform: none; widows: 2; word-spacing: 0px; -webkit-text-stroke-width: 0px; white-space: normal; background-color: rgb(251, 251, 251); text-decoration-thickness: initial; text-decoration-style: initial; text-decoration-color: initial; display: inline !important; float: none;&quot;&gt;Layer - 2 Switch&lt;/span&gt;&#xa;&#xa;" style="html=1;dashed=0;whiteSpace=wrap;" vertex="1" parent="1">
          <mxGeometry x="70" y="470" width="100" height="50" as="geometry" />
        </mxCell>
        <mxCell id="ZCE2MnAYj7O31BiBRxeJ-56" style="edgeStyle=orthogonalEdgeStyle;rounded=0;orthogonalLoop=1;jettySize=auto;html=1;" edge="1" parent="1" source="ZCE2MnAYj7O31BiBRxeJ-32" target="ZCE2MnAYj7O31BiBRxeJ-51">
          <mxGeometry relative="1" as="geometry">
            <Array as="points">
              <mxPoint x="-100" y="570" />
              <mxPoint x="-225" y="570" />
            </Array>
          </mxGeometry>
        </mxCell>
        <mxCell id="ZCE2MnAYj7O31BiBRxeJ-32" value="Layer - 2 Switch" style="html=1;dashed=0;whiteSpace=wrap;" vertex="1" parent="1">
          <mxGeometry x="-150" y="470" width="100" height="50" as="geometry" />
        </mxCell>
        <mxCell id="ZCE2MnAYj7O31BiBRxeJ-55" style="edgeStyle=orthogonalEdgeStyle;rounded=0;orthogonalLoop=1;jettySize=auto;html=1;entryX=0.5;entryY=0;entryDx=0;entryDy=0;" edge="1" parent="1" source="ZCE2MnAYj7O31BiBRxeJ-33" target="ZCE2MnAYj7O31BiBRxeJ-51">
          <mxGeometry relative="1" as="geometry">
            <Array as="points">
              <mxPoint x="-370" y="570" />
              <mxPoint x="-225" y="570" />
            </Array>
          </mxGeometry>
        </mxCell>
        <mxCell id="ZCE2MnAYj7O31BiBRxeJ-33" value="Layer - 2 Switch" style="html=1;dashed=0;whiteSpace=wrap;" vertex="1" parent="1">
          <mxGeometry x="-420" y="470" width="100" height="50" as="geometry" />
        </mxCell>
        <mxCell id="ZCE2MnAYj7O31BiBRxeJ-65" style="edgeStyle=orthogonalEdgeStyle;rounded=0;orthogonalLoop=1;jettySize=auto;html=1;" edge="1" parent="1" source="ZCE2MnAYj7O31BiBRxeJ-37" target="ZCE2MnAYj7O31BiBRxeJ-52">
          <mxGeometry relative="1" as="geometry" />
        </mxCell>
        <mxCell id="ZCE2MnAYj7O31BiBRxeJ-37" value="&#xa;&lt;span style=&quot;forced-color-adjust: none; color: rgb(0, 0, 0); font-family: Helvetica; font-size: 12px; font-style: normal; font-variant-ligatures: normal; font-variant-caps: normal; font-weight: 400; letter-spacing: normal; orphans: 2; text-align: center; text-indent: 0px; text-transform: none; widows: 2; word-spacing: 0px; -webkit-text-stroke-width: 0px; white-space: normal; text-decoration-thickness: initial; text-decoration-style: initial; text-decoration-color: initial; background-color: rgb(251, 251, 251); float: none; display: inline !important;&quot;&gt;Layer - 2 Switch&lt;/span&gt;&lt;br style=&quot;forced-color-adjust: none; color: rgb(0, 0, 0); font-family: Helvetica; font-size: 12px; font-style: normal; font-variant-ligatures: normal; font-variant-caps: normal; font-weight: 400; letter-spacing: normal; orphans: 2; text-align: center; text-indent: 0px; text-transform: none; widows: 2; word-spacing: 0px; -webkit-text-stroke-width: 0px; white-space: normal; background-color: rgb(251, 251, 251); text-decoration-thickness: initial; text-decoration-style: initial; text-decoration-color: initial;&quot;&gt;&#xa;&#xa;" style="html=1;dashed=0;whiteSpace=wrap;" vertex="1" parent="1">
          <mxGeometry x="1175" y="470" width="100" height="50" as="geometry" />
        </mxCell>
        <mxCell id="ZCE2MnAYj7O31BiBRxeJ-64" style="edgeStyle=orthogonalEdgeStyle;rounded=0;orthogonalLoop=1;jettySize=auto;html=1;exitX=0.5;exitY=1;exitDx=0;exitDy=0;" edge="1" parent="1" source="ZCE2MnAYj7O31BiBRxeJ-38" target="ZCE2MnAYj7O31BiBRxeJ-52">
          <mxGeometry relative="1" as="geometry" />
        </mxCell>
        <mxCell id="ZCE2MnAYj7O31BiBRxeJ-38" value="&#xa;&lt;span style=&quot;forced-color-adjust: none; color: rgb(0, 0, 0); font-family: Helvetica; font-size: 12px; font-style: normal; font-variant-ligatures: normal; font-variant-caps: normal; font-weight: 400; letter-spacing: normal; orphans: 2; text-align: center; text-indent: 0px; text-transform: none; widows: 2; word-spacing: 0px; -webkit-text-stroke-width: 0px; white-space: normal; text-decoration-thickness: initial; text-decoration-style: initial; text-decoration-color: initial; background-color: rgb(251, 251, 251); float: none; display: inline !important;&quot;&gt;Layer - 2 Switch&lt;/span&gt;&lt;br style=&quot;forced-color-adjust: none; color: rgb(0, 0, 0); font-family: Helvetica; font-size: 12px; font-style: normal; font-variant-ligatures: normal; font-variant-caps: normal; font-weight: 400; letter-spacing: normal; orphans: 2; text-align: center; text-indent: 0px; text-transform: none; widows: 2; word-spacing: 0px; -webkit-text-stroke-width: 0px; white-space: normal; background-color: rgb(251, 251, 251); text-decoration-thickness: initial; text-decoration-style: initial; text-decoration-color: initial;&quot;&gt;&#xa;&#xa;" style="html=1;dashed=0;whiteSpace=wrap;" vertex="1" parent="1">
          <mxGeometry x="940" y="470" width="100" height="50" as="geometry" />
        </mxCell>
        <mxCell id="ZCE2MnAYj7O31BiBRxeJ-71" style="edgeStyle=orthogonalEdgeStyle;rounded=0;orthogonalLoop=1;jettySize=auto;html=1;" edge="1" parent="1" source="ZCE2MnAYj7O31BiBRxeJ-51" target="ZCE2MnAYj7O31BiBRxeJ-67">
          <mxGeometry relative="1" as="geometry" />
        </mxCell>
        <mxCell id="ZCE2MnAYj7O31BiBRxeJ-51" value="Management Server Cluster" style="html=1;dashed=0;whiteSpace=wrap;fontStyle=1" vertex="1" parent="1">
          <mxGeometry x="-317.5" y="610" width="185" height="100" as="geometry" />
        </mxCell>
        <mxCell id="ZCE2MnAYj7O31BiBRxeJ-75" style="edgeStyle=orthogonalEdgeStyle;rounded=0;orthogonalLoop=1;jettySize=auto;html=1;" edge="1" parent="1" source="ZCE2MnAYj7O31BiBRxeJ-52" target="ZCE2MnAYj7O31BiBRxeJ-68">
          <mxGeometry relative="1" as="geometry" />
        </mxCell>
        <mxCell id="ZCE2MnAYj7O31BiBRxeJ-52" value="&#xa;&lt;span style=&quot;color: rgb(0, 0, 0); font-family: Helvetica; font-size: 12px; font-style: normal; font-variant-ligatures: normal; font-variant-caps: normal; letter-spacing: normal; orphans: 2; text-align: center; text-indent: 0px; text-transform: none; widows: 2; word-spacing: 0px; -webkit-text-stroke-width: 0px; white-space: normal; background-color: rgb(251, 251, 251); text-decoration-thickness: initial; text-decoration-style: initial; text-decoration-color: initial; float: none; display: inline !important;&quot;&gt;Management Server Cluster&lt;/span&gt;&#xa;&#xa;" style="html=1;dashed=0;whiteSpace=wrap;fontStyle=1" vertex="1" parent="1">
          <mxGeometry x="1022.5" y="610" width="185" height="100" as="geometry" />
        </mxCell>
        <mxCell id="ZCE2MnAYj7O31BiBRxeJ-76" style="edgeStyle=orthogonalEdgeStyle;rounded=0;orthogonalLoop=1;jettySize=auto;html=1;exitX=0.5;exitY=1;exitDx=0;exitDy=0;" edge="1" parent="1" source="ZCE2MnAYj7O31BiBRxeJ-53" target="ZCE2MnAYj7O31BiBRxeJ-69">
          <mxGeometry relative="1" as="geometry" />
        </mxCell>
        <mxCell id="ZCE2MnAYj7O31BiBRxeJ-53" value="&#xa;&lt;span style=&quot;color: rgb(0, 0, 0); font-family: Helvetica; font-size: 12px; font-style: normal; font-variant-ligatures: normal; font-variant-caps: normal; letter-spacing: normal; orphans: 2; text-align: center; text-indent: 0px; text-transform: none; widows: 2; word-spacing: 0px; -webkit-text-stroke-width: 0px; white-space: normal; background-color: rgb(251, 251, 251); text-decoration-thickness: initial; text-decoration-style: initial; text-decoration-color: initial; float: none; display: inline !important;&quot;&gt;Management Server Cluster&lt;/span&gt;&#xa;&#xa;" style="html=1;dashed=0;whiteSpace=wrap;fontStyle=1" vertex="1" parent="1">
          <mxGeometry x="552.5" y="610" width="185" height="100" as="geometry" />
        </mxCell>
        <mxCell id="ZCE2MnAYj7O31BiBRxeJ-72" style="edgeStyle=orthogonalEdgeStyle;rounded=0;orthogonalLoop=1;jettySize=auto;html=1;exitX=0.5;exitY=1;exitDx=0;exitDy=0;entryX=0.5;entryY=0;entryDx=0;entryDy=0;" edge="1" parent="1" source="ZCE2MnAYj7O31BiBRxeJ-54" target="ZCE2MnAYj7O31BiBRxeJ-70">
          <mxGeometry relative="1" as="geometry" />
        </mxCell>
        <mxCell id="ZCE2MnAYj7O31BiBRxeJ-54" value="&#xa;&lt;span style=&quot;color: rgb(0, 0, 0); font-family: Helvetica; font-size: 12px; font-style: normal; font-variant-ligatures: normal; font-variant-caps: normal; letter-spacing: normal; orphans: 2; text-align: center; text-indent: 0px; text-transform: none; widows: 2; word-spacing: 0px; -webkit-text-stroke-width: 0px; white-space: normal; background-color: rgb(251, 251, 251); text-decoration-thickness: initial; text-decoration-style: initial; text-decoration-color: initial; float: none; display: inline !important;&quot;&gt;Management Server Cluster&lt;/span&gt;&#xa;&#xa;" style="html=1;dashed=0;whiteSpace=wrap;fontStyle=1" vertex="1" parent="1">
          <mxGeometry x="150" y="610" width="185" height="100" as="geometry" />
        </mxCell>
        <mxCell id="ZCE2MnAYj7O31BiBRxeJ-83" style="edgeStyle=orthogonalEdgeStyle;rounded=0;orthogonalLoop=1;jettySize=auto;html=1;exitX=0.5;exitY=1;exitDx=0;exitDy=0;entryX=0.5;entryY=0;entryDx=0;entryDy=0;" edge="1" parent="1" source="ZCE2MnAYj7O31BiBRxeJ-67" target="ZCE2MnAYj7O31BiBRxeJ-77">
          <mxGeometry relative="1" as="geometry" />
        </mxCell>
        <mxCell id="ZCE2MnAYj7O31BiBRxeJ-67" value="vCenter Server" style="html=1;dashed=0;whiteSpace=wrap;" vertex="1" parent="1">
          <mxGeometry x="-297.5" y="760" width="145" height="70" as="geometry" />
        </mxCell>
        <mxCell id="ZCE2MnAYj7O31BiBRxeJ-86" style="edgeStyle=orthogonalEdgeStyle;rounded=0;orthogonalLoop=1;jettySize=auto;html=1;exitX=0.5;exitY=1;exitDx=0;exitDy=0;entryX=0.5;entryY=0;entryDx=0;entryDy=0;" edge="1" parent="1" source="ZCE2MnAYj7O31BiBRxeJ-68" target="ZCE2MnAYj7O31BiBRxeJ-78">
          <mxGeometry relative="1" as="geometry" />
        </mxCell>
        <mxCell id="ZCE2MnAYj7O31BiBRxeJ-68" value="vCenter Server" style="html=1;dashed=0;whiteSpace=wrap;" vertex="1" parent="1">
          <mxGeometry x="1042.5" y="760" width="145" height="70" as="geometry" />
        </mxCell>
        <mxCell id="ZCE2MnAYj7O31BiBRxeJ-85" style="edgeStyle=orthogonalEdgeStyle;rounded=0;orthogonalLoop=1;jettySize=auto;html=1;entryX=0.5;entryY=0;entryDx=0;entryDy=0;" edge="1" parent="1" source="ZCE2MnAYj7O31BiBRxeJ-69" target="ZCE2MnAYj7O31BiBRxeJ-79">
          <mxGeometry relative="1" as="geometry" />
        </mxCell>
        <mxCell id="ZCE2MnAYj7O31BiBRxeJ-69" value="vCenter Server" style="html=1;dashed=0;whiteSpace=wrap;" vertex="1" parent="1">
          <mxGeometry x="572.5" y="760" width="145" height="70" as="geometry" />
        </mxCell>
        <mxCell id="ZCE2MnAYj7O31BiBRxeJ-84" style="edgeStyle=orthogonalEdgeStyle;rounded=0;orthogonalLoop=1;jettySize=auto;html=1;entryX=0.5;entryY=0;entryDx=0;entryDy=0;" edge="1" parent="1" source="ZCE2MnAYj7O31BiBRxeJ-70" target="ZCE2MnAYj7O31BiBRxeJ-80">
          <mxGeometry relative="1" as="geometry" />
        </mxCell>
        <mxCell id="ZCE2MnAYj7O31BiBRxeJ-70" value="vCenter Server" style="html=1;dashed=0;whiteSpace=wrap;" vertex="1" parent="1">
          <mxGeometry x="170" y="760" width="145" height="70" as="geometry" />
        </mxCell>
        <mxCell id="ZCE2MnAYj7O31BiBRxeJ-100" style="edgeStyle=orthogonalEdgeStyle;rounded=0;orthogonalLoop=1;jettySize=auto;html=1;exitX=0.5;exitY=1;exitDx=0;exitDy=0;entryX=0.5;entryY=0;entryDx=0;entryDy=0;" edge="1" parent="1" source="ZCE2MnAYj7O31BiBRxeJ-77" target="ZCE2MnAYj7O31BiBRxeJ-99">
          <mxGeometry relative="1" as="geometry" />
        </mxCell>
        <mxCell id="ZCE2MnAYj7O31BiBRxeJ-77" value="Secondary Storage Server" style="html=1;dashed=0;whiteSpace=wrap;" vertex="1" parent="1">
          <mxGeometry x="-350" y="870" width="250" height="50" as="geometry" />
        </mxCell>
        <mxCell id="ZCE2MnAYj7O31BiBRxeJ-109" style="edgeStyle=orthogonalEdgeStyle;rounded=0;orthogonalLoop=1;jettySize=auto;html=1;entryX=0.5;entryY=0;entryDx=0;entryDy=0;" edge="1" parent="1" source="ZCE2MnAYj7O31BiBRxeJ-78" target="ZCE2MnAYj7O31BiBRxeJ-102">
          <mxGeometry relative="1" as="geometry" />
        </mxCell>
        <mxCell id="ZCE2MnAYj7O31BiBRxeJ-78" value="Secondary Storage Server" style="html=1;dashed=0;whiteSpace=wrap;" vertex="1" parent="1">
          <mxGeometry x="990" y="870" width="250" height="50" as="geometry" />
        </mxCell>
        <mxCell id="ZCE2MnAYj7O31BiBRxeJ-107" style="edgeStyle=orthogonalEdgeStyle;rounded=0;orthogonalLoop=1;jettySize=auto;html=1;exitX=0.5;exitY=1;exitDx=0;exitDy=0;entryX=0.5;entryY=0;entryDx=0;entryDy=0;" edge="1" parent="1" source="ZCE2MnAYj7O31BiBRxeJ-79" target="ZCE2MnAYj7O31BiBRxeJ-103">
          <mxGeometry relative="1" as="geometry" />
        </mxCell>
        <mxCell id="ZCE2MnAYj7O31BiBRxeJ-79" value="Secondary Storage Server" style="html=1;dashed=0;whiteSpace=wrap;" vertex="1" parent="1">
          <mxGeometry x="520" y="870" width="250" height="50" as="geometry" />
        </mxCell>
        <mxCell id="ZCE2MnAYj7O31BiBRxeJ-105" style="edgeStyle=orthogonalEdgeStyle;rounded=0;orthogonalLoop=1;jettySize=auto;html=1;exitX=0.5;exitY=1;exitDx=0;exitDy=0;" edge="1" parent="1" source="ZCE2MnAYj7O31BiBRxeJ-80" target="ZCE2MnAYj7O31BiBRxeJ-104">
          <mxGeometry relative="1" as="geometry" />
        </mxCell>
        <mxCell id="ZCE2MnAYj7O31BiBRxeJ-80" value="Secondary Storage Server" style="html=1;dashed=0;whiteSpace=wrap;" vertex="1" parent="1">
          <mxGeometry x="117.5" y="870" width="250" height="50" as="geometry" />
        </mxCell>
        <mxCell id="ZCE2MnAYj7O31BiBRxeJ-87" value="Primary Storage Server" style="html=1;dashed=0;whiteSpace=wrap;fontStyle=1" vertex="1" parent="1">
          <mxGeometry x="-307.5" y="1110" width="165" height="50" as="geometry" />
        </mxCell>
        <mxCell id="ZCE2MnAYj7O31BiBRxeJ-88" value="Primary Storage Server" style="html=1;dashed=0;whiteSpace=wrap;fontStyle=1" vertex="1" parent="1">
          <mxGeometry x="1032.5" y="1110" width="165" height="50" as="geometry" />
        </mxCell>
        <mxCell id="ZCE2MnAYj7O31BiBRxeJ-89" value="Primary Storage Server" style="html=1;dashed=0;whiteSpace=wrap;fontStyle=1" vertex="1" parent="1">
          <mxGeometry x="562.5" y="1110" width="165" height="50" as="geometry" />
        </mxCell>
        <mxCell id="ZCE2MnAYj7O31BiBRxeJ-90" value="Primary Storage Server" style="html=1;dashed=0;whiteSpace=wrap;fontStyle=1" vertex="1" parent="1">
          <mxGeometry x="160" y="1110" width="165" height="50" as="geometry" />
        </mxCell>
        <mxCell id="ZCE2MnAYj7O31BiBRxeJ-97" value="Layer - 3 Switches&amp;nbsp;&lt;div&gt;with&lt;/div&gt;&lt;div&gt;&amp;nbsp;Firewall Modules&lt;/div&gt;" style="html=1;dashed=0;whiteSpace=wrap;fontStyle=1" vertex="1" parent="1">
          <mxGeometry x="814" y="141" width="122" height="59" as="geometry" />
        </mxCell>
        <mxCell id="ZCE2MnAYj7O31BiBRxeJ-101" style="edgeStyle=orthogonalEdgeStyle;rounded=0;orthogonalLoop=1;jettySize=auto;html=1;entryX=0.5;entryY=0;entryDx=0;entryDy=0;" edge="1" parent="1" source="ZCE2MnAYj7O31BiBRxeJ-99" target="ZCE2MnAYj7O31BiBRxeJ-87">
          <mxGeometry relative="1" as="geometry" />
        </mxCell>
        <mxCell id="ZCE2MnAYj7O31BiBRxeJ-99" value="&lt;b&gt;Primary Computing Node&lt;/b&gt;" style="rounded=0;whiteSpace=wrap;html=1;" vertex="1" parent="1">
          <mxGeometry x="-320" y="980" width="190" height="70" as="geometry" />
        </mxCell>
        <mxCell id="ZCE2MnAYj7O31BiBRxeJ-110" style="edgeStyle=orthogonalEdgeStyle;rounded=0;orthogonalLoop=1;jettySize=auto;html=1;exitX=0.5;exitY=1;exitDx=0;exitDy=0;entryX=0.5;entryY=0;entryDx=0;entryDy=0;" edge="1" parent="1" source="ZCE2MnAYj7O31BiBRxeJ-102" target="ZCE2MnAYj7O31BiBRxeJ-88">
          <mxGeometry relative="1" as="geometry" />
        </mxCell>
        <mxCell id="ZCE2MnAYj7O31BiBRxeJ-102" value="&lt;b&gt;Primary Computing Node&lt;/b&gt;" style="rounded=0;whiteSpace=wrap;html=1;" vertex="1" parent="1">
          <mxGeometry x="1020" y="980" width="190" height="70" as="geometry" />
        </mxCell>
        <mxCell id="ZCE2MnAYj7O31BiBRxeJ-108" style="edgeStyle=orthogonalEdgeStyle;rounded=0;orthogonalLoop=1;jettySize=auto;html=1;exitX=0.5;exitY=1;exitDx=0;exitDy=0;entryX=0.5;entryY=0;entryDx=0;entryDy=0;" edge="1" parent="1" source="ZCE2MnAYj7O31BiBRxeJ-103" target="ZCE2MnAYj7O31BiBRxeJ-89">
          <mxGeometry relative="1" as="geometry" />
        </mxCell>
        <mxCell id="ZCE2MnAYj7O31BiBRxeJ-103" value="&lt;b&gt;Primary Computing Node&lt;/b&gt;" style="rounded=0;whiteSpace=wrap;html=1;" vertex="1" parent="1">
          <mxGeometry x="550" y="980" width="190" height="70" as="geometry" />
        </mxCell>
        <mxCell id="ZCE2MnAYj7O31BiBRxeJ-106" style="edgeStyle=orthogonalEdgeStyle;rounded=0;orthogonalLoop=1;jettySize=auto;html=1;exitX=0.5;exitY=1;exitDx=0;exitDy=0;entryX=0.5;entryY=0;entryDx=0;entryDy=0;" edge="1" parent="1" source="ZCE2MnAYj7O31BiBRxeJ-104" target="ZCE2MnAYj7O31BiBRxeJ-90">
          <mxGeometry relative="1" as="geometry" />
        </mxCell>
        <mxCell id="ZCE2MnAYj7O31BiBRxeJ-104" value="&lt;b&gt;Primary Computing Node&lt;/b&gt;" style="rounded=0;whiteSpace=wrap;html=1;" vertex="1" parent="1">
          <mxGeometry x="147.5" y="980" width="190" height="70" as="geometry" />
        </mxCell>
      </root>
    </mxGraphModel>
  </diagram>
</mxfile>
